<?xml version="1.0" standalone="no"?>
<!DOCTYPE svg PUBLIC "-//W3C//DTD SVG 20010904//EN"
 "http://www.w3.org/TR/2001/REC-SVG-20010904/DTD/svg10.dtd">
<svg version="1.0" xmlns="http://www.w3.org/2000/svg"
 width="512.000000pt" height="512.000000pt" viewBox="0 0 512.000000 512.000000"
 preserveAspectRatio="xMidYMid meet">

<g transform="translate(0.000000,512.000000) scale(0.100000,-0.100000)"
fill="#000000" stroke="none">
<path d="M3380 5098 c-191 -73 -293 -357 -307 -850 l-6 -217 -43 -58 c-97
-128 -150 -283 -141 -403 l5 -65 -46 -35 c-104 -80 -192 -218 -215 -339 l-11
-60 -81 -25 c-223 -70 -414 -262 -489 -492 -16 -50 -18 -51 -69 -63 -117 -26
-251 -114 -327 -213 l-35 -46 -65 5 c-120 9 -275 -44 -403 -141 l-58 -43 -217
-6 c-404 -11 -647 -76 -782 -207 -55 -54 -90 -135 -90 -211 0 -172 176 -441
443 -677 65 -57 107 -103 122 -133 96 -188 381 -344 777 -424 18 -3 36 -21 59
-57 102 -167 253 -268 469 -315 180 -38 642 -10 701 43 25 23 25 78 -1 104
-24 24 -53 25 -172 3 -141 -26 -427 -23 -529 5 -216 59 -344 182 -398 382 -74
274 -46 784 63 1147 95 314 227 521 392 608 74 39 73 40 73 -93 0 -262 75
-543 232 -871 195 -407 500 -818 734 -986 l28 -21 -111 -43 c-67 -25 -116 -50
-122 -61 -27 -51 5 -110 59 -110 38 0 152 41 267 95 85 41 93 43 135 33 77
-18 244 -13 342 10 266 65 549 244 813 514 182 187 293 340 384 530 76 159
101 258 107 413 3 73 0 150 -5 174 -10 42 -8 50 33 137 87 183 166 449 202
679 23 147 23 431 0 531 -49 217 -154 376 -309 470 -42 26 -60 43 -63 62 -81
397 -236 681 -424 777 -30 15 -76 57 -133 122 -186 210 -388 363 -554 419 -89
29 -160 30 -234 2z m256 -173 c87 -42 224 -147 317 -242 l67 -69 -77 -18
c-191 -44 -437 -175 -645 -343 l-78 -63 0 69 c0 172 34 384 82 518 30 83 89
165 132 184 40 17 127 2 202 -36z m579 -495 c105 -51 199 -172 268 -346 40
-99 85 -260 76 -269 -4 -3 -59 1 -123 10 -261 34 -778 1 -856 -54 -36 -26 -39
-79 -5 -111 l25 -23 107 16 c173 27 287 37 453 37 340 0 521 -50 645 -181 158
-166 202 -459 129 -858 -22 -120 -76 -310 -120 -425 l-38 -99 -18 24 c-118
153 -256 279 -447 408 -481 324 -1028 529 -1427 532 -86 0 -114 4 -114 13 0 8
16 44 34 82 72 143 228 260 473 354 89 34 113 54 113 90 0 37 -35 80 -66 80
-26 0 -174 -54 -242 -89 -23 -12 -44 -21 -48 -21 -10 0 4 75 26 134 92 245
493 574 848 697 75 25 99 29 172 26 65 -2 97 -9 135 -27z m-1040 -1523 c393
-88 829 -297 1175 -563 198 -152 295 -266 342 -402 33 -95 33 -281 0 -397
-100 -349 -445 -755 -850 -998 -170 -102 -323 -150 -477 -149 -225 1 -370 92
-600 380 -284 353 -507 795 -586 1163 -30 138 -34 408 -6 509 66 247 246 424
482 475 108 23 377 14 520 -18z m-1658 -829 c-3 -7 -24 -55 -46 -106 -165
-375 -233 -943 -164 -1374 5 -34 3 -38 -15 -38 -40 0 -255 71 -337 112 -262
129 -346 299 -265 539 53 159 151 332 285 505 79 101 234 248 311 294 95 57
245 101 231 68z m-650 -255 c-166 -206 -300 -457 -343 -646 l-18 -77 -69 67
c-96 94 -200 230 -244 320 -32 64 -38 87 -38 141 l0 64 52 48 c101 93 348 154
635 159 l88 1 -63 -77z"/>
</g>
</svg>
